<svg width="51" height="32" viewBox="0 0 51 32" fill="none" xmlns="http://www.w3.org/2000/svg">
<path d="M47.4298 13.5668L46.1091 8.32879C46.4702 8.25274 46.7411 7.93511 46.7411 7.55457V6.71003C46.7411 4.87635 45.2365 3.3846 43.3873 3.3846H37.3716V1.64257C37.3716 0.74025 36.6313 0.00622559 35.7213 0.00622559H5.05737C4.14734 0.00622559 3.40704 0.74025 3.40704 1.64257V16.0001C3.40704 16.4373 3.76454 16.7919 4.20561 16.7919C4.64658 16.7919 5.00418 16.4374 5.00418 16.0001V1.64257C5.00418 1.61344 5.02798 1.58983 5.05737 1.58983H35.7212C35.7506 1.58983 35.7744 1.61344 35.7744 1.64257V16.0003C35.7744 16.4375 36.1319 16.7921 36.573 16.7921C37.0139 16.7921 37.3715 16.4376 37.3715 16.0003V15.1027H46.7915C46.7923 15.1027 46.7929 15.1029 46.7936 15.1029C46.7944 15.1029 46.7951 15.1028 46.7958 15.1028C47.9549 15.1036 48.9392 15.858 49.2773 16.8975H46.7942C46.3532 16.8975 45.9956 17.252 45.9956 17.6893V19.3784C45.9956 20.7464 47.118 21.8593 48.4977 21.8593H49.4028V25.343H47.3148C46.6288 23.3793 44.7461 21.9647 42.5353 21.9647C40.3245 21.9647 38.4417 23.3793 37.7558 25.343H37.3713V19.3783C37.3713 18.941 37.0138 18.5865 36.5728 18.5865C36.1318 18.5865 35.7742 18.9409 35.7742 19.3783V25.3428H19.2064C18.5205 23.3791 16.6378 21.9645 14.4269 21.9645C12.2161 21.9645 10.3333 23.3791 9.64747 25.3428H5.05737C5.02798 25.3428 5.00418 25.3192 5.00418 25.2901V23.5482H8.46451C8.90548 23.5482 9.26307 23.1937 9.26307 22.7563C9.26307 22.319 8.90558 21.9645 8.46451 21.9645H0.798568C0.357598 21.9645 0 22.319 0 22.7563C0 23.1937 0.357498 23.5482 0.798568 23.5482H3.40714V25.2901C3.40714 26.1924 4.14744 26.9264 5.05747 26.9264H9.37095C9.37075 26.944 9.36956 26.9615 9.36956 26.9792C9.36956 29.7442 11.6384 31.9937 14.4269 31.9937C17.2155 31.9937 19.4843 29.7442 19.4843 26.9792C19.4843 26.9614 19.4831 26.944 19.4829 26.9264H37.4793C37.4791 26.944 37.4779 26.9615 37.4779 26.9792C37.4779 29.7442 39.7467 31.9937 42.5353 31.9937C45.3239 31.9937 47.5927 29.7442 47.5927 26.9792C47.5927 26.9614 47.5915 26.944 47.5913 26.9264H50.2013C50.6423 26.9264 50.9999 26.572 50.9999 26.1346V17.6891C51 15.604 49.4484 13.8715 47.4298 13.5668ZM37.3716 4.9681H43.3873C44.356 4.9681 45.1441 5.74953 45.1441 6.71003V6.76277H37.3716V4.9681ZM37.3716 13.5192V8.34628H44.4673L45.7716 13.5192H37.3716ZM14.4269 30.4104C12.5189 30.4104 10.9666 28.8713 10.9666 26.9794C10.9666 25.0874 12.5189 23.5483 14.4269 23.5483C16.3349 23.5483 17.8873 25.0874 17.8873 26.9794C17.8873 28.8713 16.3349 30.4104 14.4269 30.4104ZM42.5355 30.4104C40.6275 30.4104 39.0752 28.8713 39.0752 26.9794C39.0752 25.0874 40.6275 23.5483 42.5355 23.5483C44.4435 23.5483 45.9958 25.0874 45.9958 26.9794C45.9958 28.8713 44.4435 30.4104 42.5355 30.4104ZM49.403 20.2757H48.4979C47.9989 20.2757 47.5929 19.8731 47.5929 19.3783V18.4809H49.4029V20.2757H49.403Z" fill="black"/>
<path d="M14.4269 25.3429C13.5169 25.3429 12.7766 26.0769 12.7766 26.9792C12.7766 27.8816 13.5169 28.6156 14.4269 28.6156C15.337 28.6156 16.0773 27.8816 16.0773 26.9792C16.0773 26.0769 15.337 25.3429 14.4269 25.3429Z" fill="black"/>
<path d="M42.5355 25.3429C41.6254 25.3429 40.8851 26.0769 40.8851 26.9792C40.8851 27.8816 41.6254 28.6156 42.5355 28.6156C43.4455 28.6156 44.1858 27.8816 44.1858 26.9792C44.1858 26.0769 43.4455 25.3429 42.5355 25.3429Z" fill="black"/>
<path d="M33.1659 21.9647H21.2411C20.8001 21.9647 20.4425 22.3192 20.4425 22.7565C20.4425 23.1938 20.8 23.5483 21.2411 23.5483H33.1659C33.6069 23.5483 33.9645 23.1938 33.9645 22.7565C33.9645 22.3192 33.607 21.9647 33.1659 21.9647Z" fill="black"/>
<path d="M12.7234 18.5864H2.50206C2.06109 18.5864 1.70349 18.9409 1.70349 19.3782C1.70349 19.8156 2.06099 20.17 2.50206 20.17H12.7234C13.1643 20.17 13.5219 19.8156 13.5219 19.3782C13.5219 18.9409 13.1643 18.5864 12.7234 18.5864Z" fill="black"/>
<path d="M27.7682 7.83902C27.4565 7.52988 26.9508 7.52988 26.639 7.83912L19.5376 14.8802L15.8434 11.2173C15.5315 10.9081 15.0259 10.9081 14.7141 11.2173C14.4023 11.5265 14.4023 12.0278 14.7141 12.337L18.973 16.5598C19.1289 16.7145 19.3333 16.7917 19.5376 16.7917C19.7419 16.7917 19.9464 16.7145 20.1022 16.5598L27.7681 8.95882C28.08 8.64949 28.08 8.14825 27.7682 7.83902Z" fill="black"/>
</svg>
