<svg width="38" height="38" viewBox="0 0 38 38" fill="none" xmlns="http://www.w3.org/2000/svg">
<path d="M8.90625 15.0664H5.9732C6.46868 8.3125 12.1219 2.96875 19 2.96875C24.4428 2.96875 29.3678 6.39691 31.2554 11.4994C31.5398 12.2682 32.3936 12.6609 33.1626 12.3766C33.9314 12.0921 34.3242 11.2383 34.0398 10.4694C32.9148 7.42818 30.9161 4.82578 28.26 2.94344C25.5429 1.01784 22.3408 0 19 0C14.7179 0 10.6921 1.66755 7.6642 4.69545C4.67578 7.68387 3.01365 11.6445 2.97075 15.864C1.19678 16.892 0 18.8102 0 21.0039V26.0508C0 29.3247 2.66356 31.9883 5.9375 31.9883H8.90625C9.72607 31.9883 10.3906 31.3237 10.3906 30.5039V16.5508C10.3906 15.731 9.72607 15.0664 8.90625 15.0664ZM7.42188 29.0195H5.9375C4.30053 29.0195 2.96875 27.6877 2.96875 26.0508V21.0039C2.96875 19.3669 4.30053 18.0352 5.9375 18.0352H7.42188V29.0195Z" fill="black"/>
<path d="M32.0625 15.0664H29.0938C28.2739 15.0664 27.6094 15.731 27.6094 16.5508V26.7188V30.5039V32.0625C27.6094 32.881 26.9435 33.5469 26.125 33.5469H21.5977V33.5939C21.0913 32.6808 20.118 32.0625 19 32.0625C17.3604 32.0625 16.0312 33.3917 16.0312 35.0312C16.0312 36.6708 17.3604 38 19 38C20.118 38 21.0913 37.3817 21.5977 36.4686V36.5156H26.125C28.5805 36.5156 30.5781 34.518 30.5781 32.0625V31.9883H32.0625C35.3364 31.9883 38 29.3247 38 26.0508V21.0039C38 17.73 35.3364 15.0664 32.0625 15.0664ZM35.0312 26.0508C35.0312 27.6877 33.6995 29.0195 32.0625 29.0195H30.5781V26.7188V18.0352H32.0625C33.6995 18.0352 35.0312 19.3669 35.0312 21.0039V26.0508Z" fill="black"/>
</svg>
