<svg width="33" height="33" viewBox="0 0 33 33" fill="none" xmlns="http://www.w3.org/2000/svg">
<g clip-path="url(#clip0)">
<path d="M28.5237 1.48981C27.7647 1.48981 27.1487 2.10581 27.1487 2.86481V4.01087C24.1952 1.4355 20.4284 0 16.4141 0C7.36312 0 0 7.38994 0 16.4725C0 17.2315 0.616 17.8475 1.375 17.8475C2.134 17.8475 2.75 17.2315 2.75 16.4725C2.75 8.90587 8.87975 2.75 16.4141 2.75C19.7189 2.75 22.8236 3.92012 25.2711 6.02181H24.0109C23.2519 6.02181 22.6359 6.63781 22.6359 7.39681C22.6359 8.15581 23.2519 8.77181 24.0109 8.77181H28.5237C29.2827 8.77181 29.8987 8.15581 29.8987 7.39681V2.86481C29.8987 2.10581 29.2827 1.48981 28.5237 1.48981Z" fill="black"/>
<path d="M31.625 15.1525C30.866 15.1525 30.25 15.7685 30.25 16.5275C30.25 24.0941 24.1202 30.25 16.5859 30.25C13.3196 30.25 10.2478 29.1087 7.81409 27.0531H9.13478C9.89377 27.0531 10.5098 26.4371 10.5098 25.6781C10.5098 24.9191 9.89377 24.3031 9.13478 24.3031H4.62134C4.60896 24.3031 4.59796 24.3065 4.58628 24.3065C4.53403 24.3079 4.48246 24.3148 4.43021 24.3223C4.39171 24.3278 4.35321 24.3313 4.3154 24.3402C4.27003 24.3505 4.22534 24.367 4.18065 24.3822C4.1394 24.3966 4.09746 24.409 4.05759 24.4268C4.01978 24.444 3.98403 24.466 3.94759 24.4867C3.90428 24.5114 3.86165 24.5355 3.82109 24.5643C3.81078 24.5719 3.79909 24.576 3.78878 24.5843C3.7654 24.6022 3.74753 24.6242 3.72553 24.6434C3.68909 24.675 3.65265 24.7067 3.61965 24.7424C3.58871 24.7754 3.5619 24.8098 3.53509 24.8448C3.50828 24.8799 3.48215 24.915 3.45809 24.9521C3.43403 24.9906 3.4134 25.0305 3.39346 25.0703C3.37353 25.1095 3.35496 25.1494 3.33915 25.1907C3.32334 25.2333 3.31096 25.2759 3.29928 25.3199C3.28828 25.3618 3.27659 25.4038 3.26971 25.4471C3.26146 25.4959 3.25803 25.5447 3.25459 25.5942C3.25253 25.6224 3.24634 25.6499 3.24634 25.6788V30.2108C3.24634 30.9698 3.86234 31.5858 4.62134 31.5858C5.38034 31.5858 5.99634 30.9698 5.99634 30.2108V29.1177C8.92715 31.6126 12.6376 33 16.5859 33C25.6368 33 33 25.61 33 16.5275C33 15.7685 32.384 15.1525 31.625 15.1525Z" fill="black"/>
</g>
<defs>
<clipPath id="clip0">
<rect width="33" height="33" fill="white"/>
</clipPath>
</defs>
</svg>
