<svg width="41" height="34" viewBox="0 0 41 34" fill="none" xmlns="http://www.w3.org/2000/svg">
<path d="M21.8599 23.5969H32.7897C33.1996 23.5969 33.4728 23.3192 33.4728 22.9025V16.6529C33.4728 16.2362 33.1996 15.9585 32.7897 15.9585H21.8599C21.45 15.9585 21.1768 16.2362 21.1768 16.6529V22.9025C21.1767 23.3191 21.45 23.5969 21.8599 23.5969ZM22.5429 17.3473H32.1066V22.2081H22.5429V17.3473Z" fill="black"/>
<path d="M3.41564 14.5695H8.88062C9.29049 14.5695 9.56372 14.2918 9.56372 13.8752C9.56372 13.4585 9.29049 13.1808 8.88062 13.1808H3.41564C3.00577 13.1808 2.73254 13.4585 2.73254 13.8752C2.73254 14.2918 3.00577 14.5695 3.41564 14.5695Z" fill="black"/>
<path d="M11.613 14.5695H17.078C17.4879 14.5695 17.7611 14.2918 17.7611 13.8752C17.7611 13.4585 17.4879 13.1808 17.078 13.1808H11.613C11.2032 13.1808 10.9299 13.4585 10.9299 13.8752C10.9299 14.2918 11.2032 14.5695 11.613 14.5695Z" fill="black"/>
<path d="M3.41564 17.3472H12.2962C12.706 17.3472 12.9793 17.0695 12.9793 16.6529C12.9793 16.2362 12.706 15.9585 12.2962 15.9585H3.41564C3.00577 15.9585 2.73254 16.2362 2.73254 16.6529C2.73254 17.0695 3.00577 17.3472 3.41564 17.3472Z" fill="black"/>
<path d="M17.0779 15.9584H15.0286C14.6187 15.9584 14.3455 16.2361 14.3455 16.6528C14.3455 17.0694 14.6187 17.3471 15.0286 17.3471H17.0779C17.4878 17.3471 17.761 17.0694 17.761 16.6528C17.761 16.2361 17.4878 15.9584 17.0779 15.9584Z" fill="black"/>
<path d="M40.3724 7.34732C39.8942 6.72235 39.2794 6.37512 38.528 6.30571L36.8885 6.10373V4.15299V2.76423C36.8885 1.23657 35.6589 -0.0133667 34.156 -0.0133667H2.73245C1.22962 -0.0134481 0 1.23648 0 2.76423V4.15307V9.70835V24.9853C0 26.2395 0.82911 27.3059 1.95754 27.6477C1.92312 29.0524 2.96869 30.2719 4.37202 30.4016L35.9322 34.0125C36.0004 34.0125 36.1371 34.0125 36.2054 34.0125C37.5716 34.0125 38.8013 32.9709 38.9378 31.6516L40.9872 9.36112C41.0555 8.66666 40.8505 7.90279 40.3724 7.34732ZM1.36627 4.84745H35.5223V6.65294V9.01389H1.36627V4.84745ZM2.73245 1.37539H34.1559C34.9074 1.37539 35.5222 2.00036 35.5222 2.76423V3.45861H1.36627V2.76423C1.36627 2.00036 1.98107 1.37539 2.73245 1.37539ZM1.36627 24.9852V10.4027H35.5223V24.9852C35.5223 25.7491 34.9075 26.374 34.156 26.374H2.80082H2.73253C1.98107 26.374 1.36627 25.7491 1.36627 24.9852ZM39.6209 9.08331L37.5716 31.3738C37.5033 32.1376 36.8201 32.6931 36.0687 32.6237L4.57688 29.0128C3.89378 28.9434 3.41555 28.3878 3.34726 27.7629H34.1559C35.6588 27.7629 36.8884 26.5129 36.8884 24.9853V9.70827V7.41673L38.4596 7.55564C38.8012 7.55564 39.1427 7.76396 39.3476 8.0417C39.5526 8.31943 39.6893 8.73608 39.6209 9.08331Z" fill="black"/>
</svg>
