<svg width="22" height="23" viewBox="0 0 22 23" fill="none" xmlns="http://www.w3.org/2000/svg">
<g clip-path="url(#clip0)">
<path d="M21.3763 4.8956C20.974 4.44415 20.4006 4.19549 19.7617 4.19549H4.31715L4.1617 3.0506C3.99416 1.81724 3.12007 0.851074 2.17165 0.851074H1.03683C0.685699 0.851074 0.401123 1.13063 0.401123 1.47556C0.401123 1.82049 0.685699 2.10005 1.03683 2.10005H2.17165C2.37561 2.10005 2.80752 2.52369 2.90139 3.21566L4.72108 16.6229C4.80121 17.2139 5.11028 17.7672 5.59137 18.1809C5.94812 18.4878 6.36977 18.6919 6.81145 18.7772C6.6315 19.1023 6.52919 19.4747 6.52919 19.8701C6.52919 21.1366 7.5781 22.1669 8.86722 22.1669C10.1563 22.1669 11.2052 21.1366 11.2052 19.8701C11.2052 19.4928 11.1115 19.1368 10.9467 18.8224H14.2778C14.1129 19.1368 14.0192 19.4928 14.0192 19.8701C14.0192 21.1366 15.0681 22.1669 16.3572 22.1669C17.6464 22.1669 18.6953 21.1366 18.6953 19.8701C18.6953 19.4928 18.6016 19.1368 18.4367 18.8224H20.1023C20.4532 18.8224 20.738 18.5427 20.738 18.198C20.738 17.853 20.4532 17.5735 20.1023 17.5735H7.27846C6.65732 17.5735 6.06334 17.0625 5.98123 16.4577L5.84829 15.4779H10.796C10.7962 15.4779 10.7963 15.478 10.7965 15.478C10.7967 15.478 10.7968 15.4779 10.7972 15.4779H14.8812C14.8814 15.4779 14.8816 15.478 14.8819 15.478C14.8821 15.478 14.8821 15.4779 14.8822 15.4779H18.3999C19.0068 15.4779 19.6059 15.25 20.087 14.8365C20.5681 14.4227 20.8772 13.8693 20.9573 13.2783L21.8691 6.56024C21.9536 5.9382 21.7786 5.34705 21.3763 4.8956ZM9.93384 19.8701C9.93384 20.4479 9.45541 20.9179 8.86722 20.9179C8.27919 20.9179 7.8006 20.4479 7.8006 19.8701C7.8006 19.2924 8.27919 18.8224 8.86722 18.8224C9.45541 18.8224 9.93384 19.2924 9.93384 19.8701ZM17.4239 19.8701C17.4239 20.4479 16.9454 20.9179 16.3572 20.9179C15.7691 20.9179 15.2906 20.4479 15.2906 19.8701C15.2906 19.2924 15.7691 18.8224 16.3572 18.8224C16.9454 18.8224 17.4239 19.2924 17.4239 19.8701ZM20.4196 5.71832C20.577 5.89494 20.6443 6.13514 20.6088 6.39501L20.2266 9.21219H15.9012L16.1568 5.44446H19.7617C20.0288 5.44446 20.2623 5.54171 20.4196 5.71832ZM11.3918 14.2289L11.136 10.4612H14.5422L14.2864 14.2289H11.3918ZM11.0513 9.21219L10.7957 5.44446H14.8825L14.6269 9.21219H11.0513ZM9.52146 5.44446L9.77707 9.21219H4.99788L4.4865 5.44446H9.52146ZM5.1674 10.4612H9.86183L10.1176 14.2289H5.67877L5.1674 10.4612ZM18.3999 14.2289H15.5606L15.8164 10.4612H20.0571L19.6972 13.1133C19.6151 13.7181 19.0209 14.2289 18.3999 14.2289Z" fill="black"/>
</g>
<defs>
<clipPath id="clip0">
<rect x="0.273987" y="0.851074" width="21.6986" height="21.3158" fill="white"/>
</clipPath>
</defs>
</svg>
