<svg width="27" height="27" viewBox="0 0 27 27" fill="none" xmlns="http://www.w3.org/2000/svg">
<path d="M13.8765 0.878906C6.71191 0.878906 0.903687 6.67223 0.903687 13.8185C0.903687 20.2279 5.58066 25.5359 11.7129 26.5637V16.518H8.5835V12.903H11.7129V10.2374C11.7129 7.14456 13.6068 5.45914 16.3733 5.45914C17.6983 5.45914 18.837 5.55762 19.1676 5.60099V8.83384L17.2488 8.83477C15.7446 8.83477 15.4546 9.54759 15.4546 10.594V12.9011H19.0438L18.5756 16.5162H15.4546V26.6502C21.8731 25.871 26.8492 20.4277 26.8492 13.8148C26.8492 6.67223 21.041 0.878906 13.8765 0.878906Z" fill="white"/>
</svg>
