<svg width="20" height="20" viewBox="0 0 20 20" fill="none" xmlns="http://www.w3.org/2000/svg">
<path d="M19.7553 18.5796L14.9472 13.7714C16.139 12.3184 16.8574 10.4571 16.8574 8.42857C16.8574 3.77551 13.0819 0 8.42882 0C3.77167 0 0.000244141 3.77551 0.000244141 8.42857C0.000244141 13.0816 3.77167 16.8571 8.42882 16.8571C10.4574 16.8571 12.3145 16.1429 13.7676 14.951L18.5758 19.7551C18.9023 20.0816 19.4288 20.0816 19.7553 19.7551C20.0819 19.4327 20.0819 18.902 19.7553 18.5796ZM8.42882 15.1796C4.70228 15.1796 1.67371 12.151 1.67371 8.42857C1.67371 4.70612 4.70228 1.67347 8.42882 1.67347C12.1513 1.67347 15.1839 4.70612 15.1839 8.42857C15.1839 12.151 12.1513 15.1796 8.42882 15.1796Z" fill="#E5E5E5"/>
</svg>
