<svg width="27" height="27" viewBox="0 0 27 27" fill="none" xmlns="http://www.w3.org/2000/svg">
<path d="M17.8352 7.76404H10.1022C8.86791 7.76404 7.86371 8.76565 7.86371 9.99676V17.7098C7.86371 18.9409 8.86791 19.9428 10.1022 19.9428H17.8352C19.0694 19.9428 20.0739 18.9412 20.0739 17.7098V9.99676C20.0739 8.76565 19.0697 7.76404 17.8352 7.76404ZM13.9687 17.8626C11.7524 17.8626 9.94928 16.0641 9.94928 13.8533C9.94928 11.6428 11.7524 9.84424 13.9687 9.84424C16.1852 9.84424 17.9884 11.6428 17.9884 13.8533C17.9884 16.0638 16.1849 17.8626 13.9687 17.8626ZM18.1176 10.6732C17.5929 10.6732 17.1663 10.2476 17.1663 9.72459C17.1663 9.20159 17.5929 8.77603 18.1176 8.77603C18.6419 8.77603 19.0686 9.20159 19.0686 9.72459C19.0686 10.2476 18.6419 10.6732 18.1176 10.6732Z" fill="white"/>
<path d="M13.9685 11.5389C12.6892 11.5389 11.6474 12.5775 11.6474 13.8536C11.6474 15.1303 12.6892 16.1691 13.9685 16.1691C15.2485 16.1691 16.2894 15.1303 16.2894 13.8536C16.2894 12.5778 15.2482 11.5389 13.9685 11.5389Z" fill="white"/>
<path d="M13.9686 0.878906C6.80419 0.878906 0.995789 6.67239 0.995789 13.8184C0.995789 20.9643 6.80419 26.7578 13.9686 26.7578C21.1329 26.7578 26.9413 20.9643 26.9413 13.8184C26.9413 6.67239 21.1329 0.878906 13.9686 0.878906ZM21.7721 17.7098C21.7721 19.8754 20.0062 21.6367 17.8351 21.6367H10.1021C7.93123 21.6367 6.16507 19.8754 6.16507 17.7098V9.9967C6.16507 7.83143 7.93123 6.0698 10.1021 6.0698H17.8351C20.0062 6.0698 21.7721 7.83143 21.7721 9.9967V17.7098Z" fill="white"/>
</svg>
