<svg width="19" height="22" viewBox="0 0 19 22" fill="none" xmlns="http://www.w3.org/2000/svg">
<path d="M9.09908 11.9781C9.12142 11.9781 9.14376 11.9781 9.17057 11.9781C9.17951 11.9781 9.18845 11.9781 9.19738 11.9781C9.21079 11.9781 9.22866 11.9781 9.24207 11.9781C10.5513 11.956 11.6104 11.5014 12.3924 10.6318C14.1128 8.71611 13.8268 5.43203 13.7955 5.11863C13.6838 2.76593 12.5577 1.64034 11.6283 1.11506C10.9356 0.722208 10.1268 0.510332 9.2242 0.492676H9.19292C9.18845 0.492676 9.17951 0.492676 9.17504 0.492676H9.14823C8.65223 0.492676 7.67809 0.572129 6.74416 1.09741C5.80577 1.62268 4.66183 2.74827 4.55012 5.11863C4.51884 5.43203 4.23285 8.71611 5.95324 10.6318C6.73076 11.5014 7.7898 11.956 9.09908 11.9781ZM5.74322 5.22899C5.74322 5.21574 5.74768 5.2025 5.74768 5.19367C5.89515 2.02878 8.16962 1.68889 9.14376 1.68889H9.16164C9.17057 1.68889 9.18398 1.68889 9.19738 1.68889C10.4039 1.71538 12.4549 2.20093 12.5935 5.19367C12.5935 5.20692 12.5935 5.22016 12.5979 5.22899C12.6024 5.25989 12.9152 8.26146 11.4942 9.8417C10.9312 10.4685 10.1805 10.7775 9.19292 10.7863C9.18398 10.7863 9.17951 10.7863 9.17057 10.7863C9.16164 10.7863 9.15717 10.7863 9.14823 10.7863C8.16516 10.7775 7.40998 10.4685 6.85141 9.8417C5.43489 8.27029 5.73875 5.25547 5.74322 5.22899Z" fill="black"/>
<path d="M18.3535 17.4252C18.3535 17.4208 18.3535 17.4164 18.3535 17.412C18.3535 17.3767 18.349 17.3413 18.349 17.3016C18.3222 16.4276 18.2641 14.3839 16.3248 13.7306C16.3113 13.7262 16.2935 13.7218 16.2801 13.7174C14.2648 13.2098 12.5891 12.0621 12.5712 12.0489C12.2986 11.859 11.9233 11.9253 11.7311 12.1945C11.539 12.4638 11.606 12.8346 11.8786 13.0244C11.9545 13.0773 13.733 14.3 15.9583 14.865C16.9995 15.2314 17.1157 16.3305 17.147 17.3369C17.147 17.3767 17.147 17.412 17.1514 17.4473C17.1559 17.8445 17.1291 18.4581 17.0576 18.8112C16.3337 19.2173 13.4962 20.621 9.17958 20.621C4.88085 20.621 2.02546 19.2129 1.29709 18.8068C1.22559 18.4537 1.19431 17.8401 1.20325 17.4429C1.20325 17.4076 1.20772 17.3722 1.20772 17.3325C1.239 16.3261 1.35518 15.227 2.39635 14.8606C4.62168 14.2956 6.40015 13.0685 6.47612 13.02C6.7487 12.8301 6.81572 12.4594 6.62358 12.1901C6.43143 11.9208 6.05607 11.8546 5.78349 12.0444C5.76562 12.0577 4.09886 13.2053 2.07461 13.713C2.05674 13.7174 2.04333 13.7218 2.02993 13.7262C0.0905868 14.3839 0.032496 16.4276 0.00568481 17.2972C0.00568481 17.3369 0.0056847 17.3722 0.00121618 17.4076C0.00121618 17.412 0.00121618 17.4164 0.00121618 17.4208C-0.00325235 17.6503 -0.00772079 18.8289 0.229111 19.4204C0.273797 19.5351 0.35423 19.6323 0.461475 19.6985C0.595531 19.7867 3.8084 21.8084 9.18404 21.8084C14.5597 21.8084 17.7726 19.7823 17.9066 19.6985C18.0094 19.6323 18.0943 19.5351 18.139 19.4204C18.3624 18.8333 18.3579 17.6547 18.3535 17.4252Z" fill="black"/>
</svg>
