<svg width="27" height="27" viewBox="0 0 27 27" fill="none" xmlns="http://www.w3.org/2000/svg">
<path d="M13.9058 0.878906C6.67513 0.878906 0.811523 6.72743 0.811523 13.9395C0.811523 21.1515 6.67513 27 13.9058 27C21.1364 27 27 21.1515 27 13.9395C27 6.72743 21.1364 0.878906 13.9058 0.878906ZM14.1833 21.5437C14.1831 21.5437 14.1835 21.5437 14.1833 21.5437H14.1801C12.8684 21.5431 11.5795 21.2151 10.4348 20.5925L6.28035 21.6792L7.39228 17.6297C6.70639 16.4447 6.3455 15.1003 6.34612 13.723C6.34792 9.41444 9.86364 5.90914 14.1834 5.90914C16.2797 5.90996 18.2476 6.72385 19.7271 8.20073C21.2068 9.67789 22.0212 11.6413 22.0205 13.7292C22.0185 18.038 18.5024 21.5437 14.1833 21.5437Z" fill="white"/>
<path d="M14.186 7.22937C10.593 7.22937 7.67091 10.1428 7.66925 13.7239C7.66884 14.9511 8.0133 16.1462 8.66523 17.1803L8.8201 17.4261L8.16196 19.8229L10.6273 19.1781L10.8653 19.3188C11.8652 19.9106 13.0118 20.2237 14.1805 20.2241H14.1832C17.7734 20.2241 20.6955 17.3105 20.6971 13.7292C20.6977 11.9936 20.0208 10.3618 18.791 9.13422C17.5613 7.90654 15.9256 7.22999 14.186 7.22937ZM18.0174 16.5164C17.8542 16.9724 17.0719 17.3886 16.6957 17.4449C16.3582 17.4951 15.9315 17.5161 15.4623 17.3676C15.1778 17.2775 14.8132 17.1573 14.3458 16.9563C12.3816 16.1105 11.0987 14.1383 11.0007 14.008C10.9028 13.8777 10.2011 12.9492 10.2011 11.9881C10.2011 11.0271 10.707 10.5546 10.8865 10.3593C11.0661 10.1638 11.2783 10.115 11.4087 10.115C11.5391 10.115 11.6699 10.1161 11.7839 10.1217C11.9042 10.1277 12.0657 10.0761 12.2245 10.4569C12.3877 10.8479 12.7793 11.8089 12.8283 11.9065C12.8772 12.0043 12.9098 12.1183 12.8447 12.2487C12.7793 12.379 12.5623 12.6602 12.3551 12.9165C12.2682 13.0239 12.1549 13.1196 12.2692 13.3151C12.3833 13.5104 12.7765 14.1499 13.3585 14.6676C14.1066 15.3328 14.7375 15.5389 14.9333 15.6368C15.1289 15.7344 15.2432 15.7181 15.3575 15.588C15.4716 15.4576 15.847 15.0178 15.9775 14.8223C16.1079 14.6268 16.2386 14.6595 16.418 14.7246C16.5976 14.7896 17.5603 15.2621 17.7561 15.3598C17.9519 15.4576 18.0824 15.5064 18.1313 15.588C18.1806 15.6695 18.1806 16.0603 18.0174 16.5164Z" fill="white"/>
</svg>
