<svg width="25" height="21" viewBox="0 0 25 21" fill="none" xmlns="http://www.w3.org/2000/svg">
<path d="M11.8995 3.71929L12.4505 4.59996L13.0016 3.71933C14.0036 2.11801 15.798 1.04526 17.856 1.04526C21.0139 1.04526 23.5541 3.55698 23.5541 6.63116C23.5541 8.30513 22.7999 9.80614 21.6021 10.8326L21.5853 10.847L21.5695 10.8625L12.5743 19.6993C12.5435 19.7296 12.4992 19.7487 12.4506 19.7487C12.4019 19.7487 12.3577 19.7296 12.3268 19.6993L3.33162 10.8625L3.31584 10.847L3.29906 10.8326C2.10127 9.80616 1.3472 8.30515 1.3472 6.63116C1.3472 3.55687 3.88665 1.04526 7.04443 1.04526C9.10248 1.04526 10.8977 2.1181 11.8995 3.71929Z" stroke="black" stroke-width="1.3"/>
</svg>
